PathFileType	4	(X/Y/Z)	D:\TRACE\v60_Jaco2_6-2-23\BothDRS_Motion1_10-v60.trc
DataRate	CameraRate	NumFrames	NumMarkers	Units	OrigDataRate	OrigDataStartFrame	OrigNumFrames
100.00	100.00	      14	9	mm	100.00	2813	      7500
Frame#	Time	front left toe			Front right toe			aft left toe			aft right toe			Arm			FL body			FR body			AL Body			AR Body			
		X1	Y1	Z1	X2	Y2	Z2	X3	Y3	Z3	X4	Y4	Z4	X5	Y5	Z5	X6	Y6	Z6	X7	Y7	Z7	X8	Y8	Z8	X9	Y9	Z9	

2813	28.120	-70.66024	31.23895	-165.61319	271.64993	22.34629	-185.15292	-114.28264	-2.59493	433.26526	315.26022	10.34489	454.15277	148.93489	1141.74109	-596.29144	22.02090	583.31390	-312.46756	182.47208	581.51892	-313.08673	25.12552	544.02240	632.81201	181.80287	536.23560	633.07568	
2814	28.130	-70.50111	26.80526	-165.52838	271.43176	22.28615	-185.11531	-114.57715	-2.62803	433.32205	315.32312	4.50133	454.45441	148.55252	1141.68689	-595.10559	22.53731	583.60461	-311.71188	183.26161	581.68323	-312.09781	25.95555	543.56738	633.74652	182.63005	535.73267	633.85858	
2815	28.140	-72.13358	26.20476	-167.93597	271.02954	22.09360	-185.12506	-114.89299	-2.60038	433.41312	315.91660	4.70636	452.49280	148.72141	1142.01379	-593.91504	23.99920	583.61157	-310.07544	183.91403	581.63617	-310.81720	27.01150	543.24323	634.59485	183.72771	535.75214	634.93011	
2816	28.150	-72.76237	24.76598	-166.27811	270.30774	22.14809	-184.97472	-115.06661	-2.36184	433.56183	315.46591	2.52390	453.48779	149.42874	1142.34766	-592.20953	24.50061	583.74902	-309.20792	184.28119	582.06097	-309.62695	27.91224	543.83472	636.03979	184.43950	536.41925	636.22614	
2817	28.160	-73.41335	25.80499	-166.54536	269.94238	23.44944	-184.92189	-115.17700	-1.38286	433.69519	314.98239	2.95075	452.97998	149.50737	1142.78381	-591.19733	25.11184	584.64301	-307.80756	185.17603	582.62939	-307.98386	28.78159	544.56342	637.78717	185.20488	537.11115	637.58331	
2818	28.170	-72.10398	25.52373	-164.42294	268.24954	27.00910	-183.41298	-114.29428	1.53923	434.28522	314.77484	1.06863	456.25058	150.57275	1143.55090	-590.03705	26.01193	585.69830	-306.43002	185.75485	583.85760	-307.08447	29.25948	544.99908	638.48224	186.13942	537.44397	638.55878	
2819	28.180	-72.87273	26.31684	-165.77150	265.00018	31.28745	-179.60771	-110.78359	4.58069	436.78632	314.54630	1.12034	453.53058	151.01465	1144.65710	-588.99249	26.74469	586.60028	-305.65619	186.72595	584.75867	-306.42499	29.96339	544.85065	639.53564	186.18112	537.23920	639.43292	
2820	28.190	-73.46547	26.13574	-165.65173	262.83896	39.84688	-177.77380	-106.26500	13.31499	436.86316	313.97876	0.87115	454.85852	152.54373	1145.91382	-587.41461	26.10983	587.41962	-305.23141	186.89627	585.23041	-305.77582	30.81045	544.82867	639.85071	187.33655	537.13910	639.93628	
2821	28.200	-74.93979	25.89795	-165.46434	262.54330	49.54117	-176.21220	-102.91483	22.69093	437.15424	313.00024	0.36824	454.70795	153.32025	1147.32703	-585.87555	26.07605	587.47174	-304.30667	186.51535	585.35034	-305.36285	31.27060	544.64899	640.48621	188.20752	537.06879	640.49707	
2822	28.210	-75.71101	25.78678	-165.45145	262.76312	61.87541	-176.74910	-101.34993	34.63111	437.19235	312.62805	0.21360	454.51532	154.46843	1148.69751	-584.86151	25.75867	587.43018	-303.88571	186.12787	585.32050	-304.93585	32.31756	544.12128	641.21283	188.79691	536.70233	640.71393	
2823	28.220	-76.59455	25.75559	-165.19707	264.96793	75.32290	-177.72462	-102.55631	47.93907	437.00952	312.33173	-0.18690	454.70581	155.10666	1148.99084	-584.10144	25.54317	587.31903	-303.50290	185.90381	585.21790	-304.66589	32.84626	543.51294	641.65643	189.73131	535.90686	641.17950	
2824	28.230	-77.26389	25.98237	-165.12524	266.95435	88.45574	-178.36794	-102.01274	60.50972	437.79538	311.88141	-0.39098	454.70807	154.99727	1148.74060	-583.44659	24.77876	587.73669	-302.97565	185.64531	585.15918	-304.55295	33.67050	543.01971	642.43402	190.57747	535.35260	641.32617	
2825	28.240	-77.85343	26.08285	-165.18544	269.13116	101.32030	-178.78415	-101.02664	73.47035	438.80026	311.13712	-0.50304	454.54568	154.55026	1148.12866	-583.37354	24.35999	587.68964	-302.59634	185.24599	584.89319	-304.40878	34.31491	542.61737	642.41260	191.33003	534.61011	641.51434	
2826	28.250	-78.41354	25.80992	-165.00360	271.27792	113.47840	-178.59091	-99.51804	85.37629	440.35571	310.48831	-0.67458	454.56567	153.86433	1147.37683	-583.38068	24.30130	587.33832	-302.26974	184.61478	584.49628	-304.15863	34.98073	542.11963	642.70795	191.09534	533.67145	641.29980	
